<svg xmlns="http://www.w3.org/2000/svg" xmlns:xlink="http://www.w3.org/1999/xlink" width="100" height="100" viewBox="0 0 100 100"><circle stroke="none" fill="#FFF668" r="48%" cx="50%" cy="50%"></circle><g transform="translate(50 50) scale(0.69 0.69) rotate(0) translate(-50 -50)" style="fill:#B30083"><svg fill="#B30083" xmlns:dc="http://purl.org/dc/elements/1.1/" xmlns:cc="http://creativecommons.org/ns#" xmlns:rdf="http://www.w3.org/1999/02/22-rdf-syntax-ns#" xmlns:svg="http://www.w3.org/2000/svg" xmlns="http://www.w3.org/2000/svg" xmlns:sodipodi="http://sodipodi.sourceforge.net/DTD/sodipodi-0.dtd" xmlns:inkscape="http://www.inkscape.org/namespaces/inkscape" version="1.1" x="0px" y="0px" viewBox="0 0 100 100"><g transform="translate(0,-952.36218)"><path style="text-indent:0;text-transform:none;direction:ltr;block-progression:tb;baseline-shift:baseline;color:#000000;enable-background:accumulate;" d="m 29.000009,963.36241 c -11.022003,0 -19.9999999,9.0055 -19.9999999,20.023 0,8.92749 5.9003309,16.49859 13.9999999,19.05479 l 0,10.9331 -2.0625,0 c -1.255065,0.053 -2.145211,0.7447 -3.03125,1.4056 -0.250948,-0.8066 -1.061219,-1.404 -1.90625,-1.4056 -2.053828,0 -4.148627,0 -6.1874999,0 -0.983168,0.093 -1.816758,1.012 -1.8125,1.9991 l 0,23.9903 c 1.05e-4,1.0468 0.952831,1.9991 1.9999999,1.9992 l 6,0 c 0.773688,0.01 1.529408,-0.4803 1.84375,-1.187 0.418661,0.2462 0.83484,0.4634 1.25,0.656 0.548535,0.2544 0.985551,0.531 1.90625,0.531 l 14.84375,0 c 0.20113,0 0.402053,-0.033 0.59375,-0.094 3.128475,-0.9441 4.137698,-4.4548 2.9375,-7.3407 0.923135,-0.8406 1.623478,-1.8184 1.75,-2.9675 0.108253,-0.9834 -0.08636,-1.9544 -0.46875,-2.8426 1.13947,-0.773 2.044245,-1.7492 2.3125,-2.9676 0.26049,-1.1828 -0.03619,-2.2572 -0.53125,-3.2799 0.898258,-0.8691 1.5625,-1.9114 1.5625,-3.1237 0,-2.0046 -1.255002,-3.8023 -3.125,-5.0605 -0.32439,-0.2063 -0.709292,-0.3162 -1.09375,-0.3123 l -4.78125,0 0,-10.9331 c 8.09967,-2.5562 14,-10.1273 14,-19.05479 0,-11.0175 -8.977997,-20.023 -20,-20.023 z m 42,0 c -11.022,0 -20,9.0055 -20,20.023 0,8.92749 5.90033,16.49859 14,19.05479 l 0,10.9331 c -1.64705,0 -3.33686,0 -4.96875,0 -0.32137,0.029 -0.63529,0.1372 -0.90625,0.3123 -1.87,1.2582 -3.125,3.0559 -3.125,5.0605 0,1.2123 0.66424,2.2546 1.5625,3.1237 -0.49506,1.0227 -0.79174,2.0971 -0.53125,3.2799 0.26826,1.2184 1.17303,2.1946 2.3125,2.9676 -0.38239,0.8882 -0.577,1.8592 -0.46875,2.8426 0.12652,1.1492 0.82686,2.1269 1.75,2.9675 -1.2002,2.8859 -0.19098,6.3966 2.9375,7.3407 0.1917,0.061 0.39262,0.093 0.59375,0.094 l 14.843748,0 c 0.9207,0 1.35771,-0.2766 1.90625,-0.531 0.41516,-0.1926 0.83134,-0.4098 1.25,-0.656 0.31434,0.7067 1.07006,1.1932 1.84375,1.187 l 6,0 c 1.04717,-10e-5 1.9999,-0.9524 2,-1.9992 l 0,-23.9903 c -1e-4,-1.0467 -0.95283,-1.999 -2,-1.9991 -2.05382,0 -4.14864,0 -6.1875,0 -0.79189,0.064 -1.51667,0.6464 -1.75,1.4056 -0.90138,-0.7535 -2.05007,-1.3935 -3,-1.4056 l -2.0625,0 0,-10.9331 c 8.09967,-2.5562 14,-10.1273 14,-19.05479 0,-11.0175 -8.978,-20.023 -19.999998,-20.023 z m -42,4.0295 c 8.860248,0 16,7.1369 16,15.9935 0,8.85669 -7.139752,15.96239 -16,15.96239 -8.860248,0 -16,-7.1057 -16,-15.96239 0,-8.8566 7.139752,-15.9935 16,-15.9935 z m 42,0 c 8.860248,0 15.999998,7.1369 15.999998,15.9935 0,8.85669 -7.13975,15.96239 -15.999998,15.96239 -8.86025,0 -16,-7.1057 -16,-15.96239 0,-8.8566 7.13975,-15.9935 16,-15.9935 z m 8.031248,7.6219 -10.687498,11.5891 -5.53125,-4.748 c -0.79361,-0.6868 -2.14064,-0.5899 -2.82777,0.2033 -0.68713,0.793 -0.59054,2.1396 0.20277,2.8266 l 7,5.9976 c 0.77614,0.6725 2.08532,0.599 2.78125,-0.1561 l 11.999998,-12.9948 c 0.89308,-1.1406 0.56339,-2.2656 -0.31549,-3.0152 -0.8991,-0.6284 -1.78942,-0.3941 -2.62201,0.2975 z m -45.781248,1.2804 -4.25,4.2483 -4.25,-4.2483 c -1.015081,-0.7712 -1.885933,-0.7067 -2.710628,-0.129 -0.991511,0.9133 -0.780354,2.1812 -0.101872,2.9717 l 4.25,4.2482 -4.25,4.2171 c -0.7689,0.7303 -0.790201,2.1016 -0.04436,2.8554 0.745846,0.7539 2.11782,0.7477 2.856856,-0.013 l 4.25,-4.2483 4.25,4.2483 c 0.739036,0.7605 2.11101,0.7667 2.856856,0.013 0.745845,-0.7538 0.724544,-2.1251 -0.04436,-2.8554 l -4.25,-4.2171 4.25,-4.2482 c 0.799472,-1.0666 0.721442,-1.9982 -0.04944,-2.9684 -1.044702,-0.7602 -1.711325,-0.5239 -2.763052,0.1257 z m -6.25,26.98939 c 1.374416,0.1476 2.721483,0.086 4,0 l 0,10.0897 -4,0 z m 42,0 c 1.37442,0.1476 2.72148,0.086 4,0 l 0,10.0897 -4,0 z m -57,14.088 2,0 0,19.9919 -2,0 z m 9.1875,0 17.84375,0 c 1.096037,1.0429 1.021724,1.4283 0.3125,1.9992 -1.501023,0 -3.045476,0 -4.53125,0 -1.047341,0.049 -1.955743,1.046 -1.906649,2.093 0.04909,1.0469 1.046828,1.9547 2.094149,1.9054 l 3.78125,0 c 0.661432,1.2878 -0.565287,1.7891 -1.28125,1.9992 -1.219521,0 -2.483331,0 -3.6875,0 -1.047341,0.049 -1.955743,1.046 -1.906649,2.0929 0.04909,1.0469 1.046828,1.9547 2.094149,1.9055 l 2.84375,0 c 0.584408,1.1023 0.10008,1.5219 -0.46875,1.9992 -1.177836,0 -2.400023,0 -3.5625,0 -1.047341,0.049 -1.955743,1.0459 -1.906649,2.0929 0.04909,1.0469 1.046828,1.9547 2.094149,1.9054 l 2.78125,0 c 0.434714,0.8858 0.06981,1.7802 -0.46875,1.9992 l -14.3125,0 c -0.982454,-0.6066 -2.095903,-1.2745 -3,-1.9367 l 0,-15.2438 c 1.074693,-0.9798 2.128463,-2.0559 3.1875,-2.8114 z m 39.78125,0 17.843748,0 c 1.2231,0.7628 2.30631,1.9295 3.18745,2.8112 l 0,15.2438 c -0.98487,0.6684 -1.97252,1.3358 -3,1.9367 l -14.312498,0 c -0.53856,-0.219 -0.90346,-1.1134 -0.46875,-1.9992 l 2.78125,0 c 1.05663,0.015 2.02848,-0.9429 2.02848,-1.9992 0,-1.0562 -0.97185,-2.014 -2.02848,-1.9991 l -3.375,0 c -1.05413,-0.5411 -0.74184,-1.1771 -0.46875,-1.9992 l 2.84375,0 c 1.05663,0.015 2.02848,-0.9429 2.02848,-1.9992 0,-1.0563 -0.97185,-2.0141 -2.02848,-1.9992 l -3.5,0 c -1.42015,-0.4042 -1.67621,-0.9303 -1.28125,-1.9992 l 3.78125,0 c 1.05663,0.015 2.02848,-0.9429 2.02848,-1.9992 0,-1.0563 -0.97185,-2.0141 -2.02848,-1.9992 l -4.34375,0 c -1.1989,-0.5483 -0.2442,-1.5031 0.31255,-1.999 z m 25.031248,0 2,0 0,19.9919 -2,0 z" fill="#B30083" fill-opacity="1" stroke="none" marker="none" visibility="visible" display="inline" overflow="visible"></path></g></svg></g></svg>